# Made using Asset Forge (www.assetforge.io) version 1.3 

mtllib Level 1 test.model.mtl 

g porch_floor_center_2

v 0.5 0 0.5
v 0.5 0 -0.5
v -0.5 0 0.5
v -0.5 0 -0.5
v 0.5 0.1 -0.5
v 0.5 0.1 0.5
v -0.5 0.1 0.5
v -0.5 0.1 -0.5
vn 0 -1 0
vn 1 0 0
vn 0 0 1
vn -1 0 0
vn 0 0 -1
vn 0 1 0
vt -0.5 -0.5
vt -0.5 0.5
vt 0.5 -0.5
vt 0.5 0.5
vt 0.5 0.1
vt 0.5 0
vt -0.5 0.1
vt -0.5 0

usemtl customMaterial2
usemap customMaterial2
f 3/3/1 2/2/1 1/1/1
f 2/2/1 3/3/1 4/4/1
f 6/7/2 2/6/2 5/5/2
f 2/6/2 6/7/2 1/8/2
f 6/5/3 3/8/3 1/6/3
f 3/8/3 6/5/3 7/7/3
f 3/6/4 8/7/4 4/8/4
f 8/7/4 3/6/4 7/5/4
f 8/5/5 2/8/5 4/6/5
f 2/8/5 8/5/5 5/7/5

usemtl customMaterial2
usemap customMaterial2
f 8/3/6 6/2/6 5/1/6
f 6/2/6 8/3/6 7/4/6
g porch_floor_center_3

v -0.5000001 1.6 -1.5
v -0.5000001 -1.192093E-07 -1.5
v 0.5000001 1.6 -1.5
v 0.5000001 -1.192093E-07 -1.5
v -0.5000001 -1.192093E-07 -1.4
v -0.5000001 1.6 -1.4
v 0.5000001 1.6 -1.4
v 0.5000001 -1.192093E-07 -1.4
vn 8.742279E-08 1.192093E-07 -1
vn -1 0 -8.742279E-08
vn 0 1.6 -2.384186E-07
vn 1 0 8.742279E-08
vn 0 -1.6 2.384186E-07
vn -8.742279E-08 -1.192093E-07 1
vt 0.5000001 1.6
vt 0.5000001 -1.192093E-07
vt -0.5000001 1.6
vt -0.5000001 -1.192093E-07
vt -1.4 -1.311302E-07
vt -1.5 -1.192093E-07
vt -1.4 1.6
vt -1.5 1.6
vt 0.5000001 -1.5
vt -0.5000001 -1.5
vt 0.5000001 -1.4
vt -0.5000001 -1.4
vt 1.5 -1.192093E-07
vt 1.4 -1.311302E-07
vt 1.5 1.6
vt 1.4 1.6
vt -0.5000001 1.5
vt 0.5000001 1.5
vt -0.5000001 1.4
vt 0.5000001 1.4
vt -0.5000001 -1.311302E-07
vt 0.5000001 -1.311302E-07

usemtl customMaterial2
usemap customMaterial2
f 11/11/7 10/10/7 9/9/7
f 10/10/7 11/11/7 12/12/7
f 14/15/8 10/14/8 13/13/8
f 10/14/8 14/15/8 9/16/8
f 14/19/9 11/18/9 9/17/9
f 11/18/9 14/19/9 15/20/9
f 11/23/10 16/22/10 12/21/10
f 16/22/10 11/23/10 15/24/10
f 16/27/11 10/26/11 12/25/11
f 10/26/11 16/27/11 13/28/11

usemtl customMaterial2
usemap customMaterial2
f 16/30/12 14/11/12 13/29/12
f 14/11/12 16/30/12 15/9/12
g porch_floor_center_4

v -0.5000001 1.6 -0.5
v -0.5000001 1.6 -1.5
v -0.4999999 -1.192093E-07 -0.5
v -0.4999999 -1.192093E-07 -1.5
v -0.6000001 1.6 -1.5
v -0.6000001 1.6 -0.5
v -0.5999999 -1.192093E-07 -0.5
v -0.5999999 -1.192093E-07 -1.5
vn 1 1.192093E-07 0
vn -2.384186E-07 1.6 0
vn 2.384186E-07 -1.6 0
vn -1 -1.192093E-07 0
vt 0.5 1.6
vt 0.5 -1.192093E-07
vt 1.5 -1.192093E-07
vt 0.6000001 -1.5
vt 0.5000001 -1.5
vt 0.6000001 -0.5
vt 0.5000001 -0.5
vt -0.4999999 -1.192093E-07
vt -0.6000001 1.6
vt -0.5999999 -1.311302E-07
vt 0.4999999 1.5
vt 0.5999999 1.5
vt 0.4999999 0.5
vt 0.5999999 0.5
vt 0.4999999 -1.192093E-07
vt 0.5999999 -1.311302E-07
vt 0.6000001 1.6
vt -1.5 1.6
vt -0.5 1.6
vt -1.5 -1.311302E-07
vt -0.5 -1.311302E-07

usemtl customMaterial2
usemap customMaterial2
f 19/32/13 18/23/13 17/31/13
f 18/23/13 19/32/13 20/33/13
f 22/36/14 18/35/14 21/34/14
f 18/35/14 22/36/14 17/37/14
f 22/39/3 19/38/3 17/11/3
f 19/38/3 22/39/3 23/40/3
f 19/43/15 24/42/15 20/41/15
f 24/42/15 19/43/15 23/44/15
f 24/46/5 18/9/5 20/45/5
f 18/9/5 24/46/5 21/47/5

usemtl customMaterial2
usemap customMaterial2
f 24/50/16 22/49/16 21/48/16
f 22/49/16 24/50/16 23/51/16
g porch_floor_center_5

v 1.6 0.4 -0.8
v 1.6 0.4 -1.4
v 0.2 0.4 -0.8
v 0.2 0.4 -1.4
v 1.6 0.5 -1.4
v 1.6 0.5 -0.8
v 0.2 0.5 -0.8
v 0.2 0.5 -1.4
vn 1.4 0 0
vn 0 0 0.6
vn -1.4 0 0
vn 0 0 -0.6
vt -1.6 0.8
vt -1.6 1.4
vt -0.2 0.8
vt -0.2 1.4
vt 1.4 0.5
vt 1.4 0.4
vt 0.8 0.5
vt 0.8 0.4
vt 1.6 0.4
vt 0.2 0.4
vt 1.6 0.5
vt 0.2 0.5
vt -1.4 0.4
vt -1.4 0.5
vt -0.8 0.4
vt -0.8 0.5
vt -0.2 0.4
vt -1.6 0.4
vt -0.2 0.5
vt -1.6 0.5
vt -1.6 -1.4
vt -1.6 -0.8
vt -0.2 -1.4
vt -0.2 -0.8

usemtl customMaterial2
usemap customMaterial2
f 27/54/1 26/53/1 25/52/1
f 26/53/1 27/54/1 28/55/1
f 30/58/17 26/57/17 29/56/17
f 26/57/17 30/58/17 25/59/17
f 30/62/18 27/61/18 25/60/18
f 27/61/18 30/62/18 31/63/18
f 27/66/19 32/65/19 28/64/19
f 32/65/19 27/66/19 31/67/19
f 32/70/20 26/69/20 28/68/20
f 26/69/20 32/70/20 29/71/20

usemtl customMaterial2
usemap customMaterial2
f 32/74/6 30/73/6 29/72/6
f 30/73/6 32/74/6 31/75/6
g porch_floor_center_6

v 0.2464465 -5.960464E-08 -0.8535535
v 0.9535534 -5.960464E-08 -0.1464465
v 0.2464466 1 -0.8535535
v 0.9535536 1 -0.1464465
v 0.8828427 -5.960464E-08 -0.07573581
v 0.1757358 -5.960464E-08 -0.7828428
v 0.175736 1 -0.7828428
v 0.8828428 1 -0.07573581
vn 0.7071068 1.192093E-07 -0.7071069
vn -1.192093E-07 -1 0
vn -0.7071069 0 -0.7071069
vn 1.192093E-07 1 0
vn 0.7071069 0 0.7071069
vn -0.7071068 -1.192093E-07 0.7071069
vt -0.2464465 -5.960464E-08
vt -0.9535534 -5.960464E-08
vt -0.2464466 1
vt -0.9535536 1
vt -0.8828427 0.07573584
vt -0.9535534 0.1464465
vt -0.1757358 0.7828428
vt -0.2464465 0.8535535
vt -0.8535535 -5.960464E-08
vt -0.8535535 1
vt -0.7828428 -7.152558E-08
vt -0.7828428 1
vt -0.9535536 -0.1464465
vt -0.8828428 -0.07573584
vt -0.2464466 -0.8535535
vt -0.175736 -0.7828428
vt 0.9535536 1
vt 0.9535534 -5.960464E-08
vt 0.8828428 1
vt 0.8828427 -7.152558E-08
vt -0.07573584 -7.152558E-08
vt -0.07573584 1

usemtl customMaterial2
usemap customMaterial2
f 35/78/21 34/77/21 33/76/21
f 34/77/21 35/78/21 36/79/21
f 38/82/22 34/81/22 37/80/22
f 34/81/22 38/82/22 33/83/22
f 38/86/23 35/85/23 33/84/23
f 35/85/23 38/86/23 39/87/23
f 35/90/24 40/89/24 36/88/24
f 40/89/24 35/90/24 39/91/24
f 40/94/25 34/93/25 36/92/25
f 34/93/25 40/94/25 37/95/25

usemtl customMaterial2
usemap customMaterial2
f 40/97/26 38/86/26 37/96/26
f 38/86/26 40/97/26 39/87/26
g porch_floor_center_7

v 1.6 0.4 -0.7
v 1.6 0.4 -1.2
v 0.3 0.4 -0.7
v 0.3 0.4 -1.2
v 1.6 0.5 -1.2
v 1.6 0.5 -0.7
v 0.3 0.5 -0.7
v 0.3 0.5 -1.2
vn 1.3 0 0
vn 0 0 0.5
vn -1.3 0 0
vn 0 0 -0.5
vt -1.6 0.7
vt -1.6 1.2
vt -0.3 0.7
vt -0.3 1.2
vt 1.2 0.5
vt 1.2 0.4
vt 0.7 0.5
vt 0.7 0.4
vt 0.3 0.4
vt 0.3 0.5
vt -1.2 0.4
vt -1.2 0.5
vt -0.7 0.4
vt -0.7 0.5
vt -0.3 0.4
vt -0.3 0.5
vt -1.6 -1.2
vt -1.6 -0.7
vt -0.3 -1.2
vt -0.3 -0.7

usemtl customMaterial2
usemap customMaterial2
f 43/100/1 42/99/1 41/98/1
f 42/99/1 43/100/1 44/101/1
f 46/104/27 42/103/27 45/102/27
f 42/103/27 46/104/27 41/105/27
f 46/62/28 43/106/28 41/60/28
f 43/106/28 46/62/28 47/107/28
f 43/110/29 48/109/29 44/108/29
f 48/109/29 43/110/29 47/111/29
f 48/113/30 42/69/30 44/112/30
f 42/69/30 48/113/30 45/71/30

usemtl customMaterial2
usemap customMaterial2
f 48/116/6 46/115/6 45/114/6
f 46/115/6 48/116/6 47/117/6
